<svg xmlns="http://www.w3.org/2000/svg" width="400" height="400" viewBox="0 0 400 400"><path fill="#3B4457" d="M177.92 168.614c.762 3.26-1.28 6.496-4.595 7.25-3.3.753-6.59-1.275-7.35-4.525-.762-3.26 1.295-6.492 4.595-7.247 3.303-.75 6.596 1.277 7.35 4.52z"/><path fill="#910010" d="M151.816 170.398s-22.104 1.377-26.19 26.237c0 0 17.072-13.26 34.06-2.962 0 0 6.99-7.82-2.286-14.52 0 0-5.062-2.148-5.584-8.755z"/><path fill="#3B4457" d="M227.73 161.69c-2.843-18.008-21.223-22.284-21.34-22.308-7.002-2.14-13.708-2.94-19.94-2.378-24.456 2.203-34.3 24.77-34.39 25.002-.176.408-.02.886.387 1.098.392.216.89.104 1.147-.26 13.38-18.85 29.033-21.154 32.038-21.426.394-.037.608-.04.658-.043 29.643-1.58 39.693 20.822 39.796 21.053.153.352.515.563.896.527.007-.003.022-.003.04-.003.488-.05.85-.467.8-.946-.01-.112-.034-.223-.093-.316zM218.05 118.876l-8.86-2.14-8.03 5.228-9.912 19.313 1.69-.242c18.91-2.73 26.436 8.596 26.738 9.06l1.784 2.772v-26.435l-3.41-7.556zm-3.685 8.917l-6.907-1.734-5.225 12.202-4.87-.92 6.742-13.805 5.214-3.637 5.844 1.66-.8 6.233zM142.774 292.565v31.332c-.018.406-.002.685 0 .757.002.085.038.167.1.226.064.06.147.096.236.096h.006l1.25-.026c.18-.005.324-.15.324-.33v-.68c.053-1.204.422-4.042 2.75-4.406 2.786-.436 4.322-2.096 4.322-4.677v-22.291h-8.988zM129.068 284.237v43.621c-.017.365-.002.617 0 .683.002.076.036.146.088.197.057.06.13.09.213.09h.005l1.12-.024c.16-.004.29-.136.29-.293v-.614c.05-1.08.382-3.623 2.47-3.95 2.496-.39 3.872-1.88 3.872-4.192v-33.147l-8.06-2.37z"/><path fill="#3B4457" d="M151.763 291.6c-12.012-1.694-31.703-2.525-43.968 7.146l-.002-.004s-.167.135-.442.365c-.235.19-.467.39-.7.596-1.52 1.312-4.112 3.684-4.842 5.208l.005.007c-.046.048-.08.122-.08.215 0 .158.082.287.185.287.037 0 .066-.033.094-.065l.004.01s2.295-1.846 4.892-3.273c6.75-3.49 20.063-8.368 38.177-5.356 0 0 2.126.455 6.678 1.627V291.6zM176.01 313.623c-.016-.007-.26-.074-.633-.15l-16.882-4.004v6.727l8.4 1.994c.76.184 1.448.196 2.05.053 1.08-.27 1.853-1.03 2.3-2.268.21-.563.657-.93 1.362-1.103.894-.217 1.958-.066 2.5.04l.563.135c.076.018.154.006.225-.04.066-.04.11-.104.123-.184l.176-.88c.027-.137-.053-.274-.184-.32zM176.01 304.988c-.016-.01-.26-.074-.633-.153l-16.882-3.998v6.73l8.4 1.992c.76.176 1.448.19 2.05.04 1.08-.263 1.853-1.023 2.3-2.256.21-.573.657-.933 1.362-1.105.894-.225 1.958-.07 2.5.04l.563.132c.076.018.154.006.225-.04.066-.04.11-.106.123-.184l.176-.883c.027-.134-.053-.27-.184-.317zM176.01 296.884c-.016-.002-.26-.072-.633-.15l-16.882-4.004v6.73l8.4 1.994c.76.182 1.448.195 2.05.047 1.08-.267 1.853-1.027 2.3-2.26.21-.57.657-.93 1.362-1.105.894-.217 1.958-.066 2.5.042l.563.133c.076.016.154.002.225-.04.066-.043.11-.108.123-.186l.176-.883c.027-.132-.053-.272-.184-.316zM199.518 310.932c-.016-.01-.257-.074-.63-.153l-8.922-2.037v-1.997c.23-.012.457-.014.666-.066 1.077-.267 1.854-1.026 2.3-2.264.21-.567.653-.93 1.36-1.102.892-.217 1.954-.068 2.5.042l.56.13c.08.017.16.006.23-.038.064-.042.106-.108.123-.185l.173-.88c.026-.136-.052-.27-.186-.317-.016-.006-.256-.076-.63-.153l-7.096-1.685v-2.283l-5.6-1.52v2.478l-4.187-.99v6.727l4.187.994v1.834l-4.188-.958v6.567l4.187.994v10.023c-.014.254-.006.434 0 .473.002.055.022.108.063.14.038.043.09.063.145.063h.007l.774-.02c.114 0 .207-.096.207-.203v-.423c.03-.753.26-2.52 1.71-2.74 1.738-.276 2.693-1.307 2.693-2.916V315.4l.438.102c.76.18 1.448.2 2.053.05 1.082-.267 1.856-1.03 2.3-2.267.21-.566.656-.928 1.363-1.1.892-.225 1.955-.067 2.5.04l.56.132c.078.016.16.006.227-.038.066-.042.108-.114.123-.187l.176-.883c.024-.136-.054-.272-.188-.318zM212.47 302.604l-.37.003v-2.902h-6.452v2.977h-.005l-2.295.023h-.873c-.188 0-.344.153-.344.336v5.017s.007.483.502.485c.56.026 1.567.03 2.843.03l.173-.002v13.58c-.014.293 0 .5 0 .546.004.066.03.12.072.162.043.044.103.068.17.068h.003l.896-.02c.13-.002.238-.11.238-.235v-.49c.034-.86.298-2.89 1.97-3.154 2.002-.315 3.102-1.502 3.102-3.353v-7.128c1.294-.004 2.592 0 3.825.02v19.577c-.02.425-.006.712 0 .782.004.087.042.166.107.228.055.058.146.092.234.092h.007l1.264-.022c.186-.004.34-.15.34-.34v-.688c.048-1.223.42-4.11 2.792-4.48 2.83-.443 4.392-2.132 4.392-4.75V301.22c-1.81.377-3.673.693-5.596.9-2.197.243-4.65.392-6.997.484zM243.67 292.782l-13.84 6.432-.068 8.588v1.402s1.218-.374 2.95-.902l1.74-.442v19.96c-.016.29-.004.493 0 .544.004.06.037.12.095.16.055.045.13.067.217.067h.006l1.15-.018c.17-.002.31-.106.31-.233v-.492c.045-.86.384-2.893 2.54-3.157 2.576-.308 3.995-1.496 3.995-3.348V305.75l5.313-1.35V290.573l-4.408 2.21zM235.337 165.912c3.743-21.412 13.67-40.37 27.653-54.48-14.82 14.226-24.892 33.22-27.653 54.48z"/><path fill="none" d="M146.375 261.58c-.234.07-.476.126-.71.19.234-.064.478-.12.71-.19zM144.17 262.16c-.26.06-.527.11-.793.17.268-.056.532-.11.793-.17z"/><path fill="#3B4457" d="M145.665 261.77c-.49.137-.987.272-1.495.39.503-.12 1.003-.254 1.495-.39zM164.557 200.84c.035.022.158.123.35.28-.2-.218-.397-.437-.603-.65.036.153.117.29.253.37zM136.124 270.223c-.183.014-.363.033-.546.042.17-.01.354-.025.546-.042zM133.85 270.335c.163 0 .697-.005 1.52-.057-.687.032-1.38.048-2.07.052l.55.005z"/><path opacity=".7" fill="#3B4457" d="M135.578 270.265c-.076.006-.14.008-.208.014.067-.008.137-.01.208-.015zM154.716 264.9c-7.6 3.942-14.965 5.026-18.592 5.322 6.705-.436 13.006-2.312 18.592-5.32zM133.093 270.335c.07 0 .14-.005.207-.005l-.653-.01c.15.004.298.015.446.015zM128.922 270.138c-1.88-.195-3.68-.467-5.387-.813 1.76.372 3.557.648 5.387.813z"/><path fill="#3B4457" d="M301.235 214.082c6.356-34.2 28.387-59.54 28.615-59.84.958-1.27.9-1.57-1.2-2.016-2.436-.517-8.343-1.324-12.798-1.557-4.864-.252-7.727.252-11.987 1.268 1.087-20.938 11.455-40.736 19.652-53.36 3.002-4.624 5.702-8.27 7.557-10.67 1.333-1.755-.61-2.322-.61-2.322-21.205-5.664-61.95-12.675-61.95-12.675-35.163-5.135-59.29.906-74.718 15.726.61-5.82.363-10.5.307-11.44l-.81-11.633c-.054-.752-.586-1.386-1.323-1.583-.723-.19-1.52.105-1.952.734-7.092 10.606-16.726 14.065-28.916 18.445-3.77 1.345-8.04 2.877-12.597 4.812-13.217 6.232-20.763 14.565-24.838 20.682-5.444-5.98-12.22-9.962-12.515-10.14l-6.53-3.81c-.587-.332-1.352-.305-1.897.055-.574.376-.872 1.045-.777 1.718l1.097 7.453c3.296 34.45-6.36 47.537-6.456 47.664-6.662 8.502-9.005 17.498-9.77 23.792-3.847-1.537-8.46-3.52-11.267-4.78L64.32 165.6c-.71-.32-1.578-.128-2.088.445-.512.586-.576 1.445-.16 2.1l6.714 10.407c3.08 4.78 6.19 18.438 8.458 28.41.806 3.526 1.5 6.587 2.07 8.722 2.844 11.564 7.944 23.122 15.147 34.31.105.19 7.96 15.038 29.075 19.332 1.706.347 3.506.618 5.387.813 1.23.113 2.47.172 3.725.183l.653.01c.69-.005 1.384-.02 2.07-.053.067-.006.132-.008.207-.014.183-.01.363-.028.546-.042 3.627-.296 10.993-1.38 18.592-5.32 5.356-2.782 10.825-6.982 15.176-13.335 4.076-5.953 7.164-13.8 8.26-24.12.02-.52.04-1.037.04-1.56 0-2.33-.194-4.62-.547-6.855 37.66-24.76 28.906-77.353 25.737-78.748l-3.19-.48c.167.52 14.227 53.546-23.293 75.535-.46-1.854-1.032-3.662-1.718-5.417-1.41-2.846-3.042-4.895-4.323-6.22-2.73-2.83-5.286-4.085-6.13-3.925-.273.066-.468.308-.455.585 0 .036.02.068.03.104.206.213.403.433.603.65 4.854 5.34 8.148 11.965 9.224 19.26.25 1.706.392 3.445.392 5.214 0 16.902-11.84 31.207-28.146 35.985-.232.07-.476.126-.71.19-.492.136-.992.27-1.495.39-.26.06-.524.114-.792.17-2.882.618-5.877.958-8.956.958-10.682 0-20.38-3.934-27.563-10.332-1.98-1.76-3.766-3.707-5.33-5.81-.082-.12-.167-.24-.25-.36-.717-1.07-1.48-2.245-2.266-3.492-3.73-5.936-7.978-13.81-10.62-23.194-.484-1.71-.918-3.47-1.28-5.275-1.556-7.79-1.972-12.48-2.54-18.97-.27-3.078-.57-6.538-1.052-10.954 4.565 1.875 7.817 3.05 9.67 3.51l4.912 1.217c.046.01.094.02.143.02.008-.002.017 0 .026 0 .324 0 .59-.262.59-.58 0-.137-.047-.257-.13-.356l-1.888-4.81c-.01-.024-.01-.043-.01-.058-.548-1.918-2.852-12.218 5.43-26.485.028-.045.098-.134.202-.284 4.465-6.116 17.928-27.49 8.155-50.977.138.093.287.193.434.29 3.444 2.27 8.925 7.826 10.187 14.225l3.23 13.162c.063.27.298.454.596.44.28-.014.51-.22.546-.495l1.126-7.718c1.32-10.066 9.73-22.496 29.334-27.182 1.394-.258 2.79-.497 4.18-.736 8.474-1.458 17.222-2.963 24.918-8.22 1.36 5.8 1.306 8.616 1.135 17.945l-.01.653c-.003.293.216.546.513.58.294.04.576-.155.64-.443.968-4.162 23.024-41.84 105.167-18.43.423.15 1.65.694-.133 1.444 0 0 .004.01.01.013-11.003 4.46-21.005 11.23-29.503 19.81-13.982 14.11-23.91 33.068-27.653 54.48-1.072 6.153-1.644 12.51-1.644 19.01 0 31.62 13.32 59.775 34.067 77.964l-.007.004s4.705 4.093.856 9.64c-1.327 1.79-2.73 3.598-4.224 5.406-.072.094-3.562 4.42-9.912 9.298v14.68c5.46-1.043 11.727-1.908 17.834-2.01 9.405-.153 16.54 1.514 21.193 4.94.27.203.598.306.97.302.837-.016 1.505-.692 1.49-1.514-.005-.296-.098-.583-.27-.826-1.04-2.48-6.602-14.23-19.99-19.763 3.095-3.328 5.577-6.52 7.495-9.252 1.102-1.57 2.023-2.994 2.755-4.19l.582-.968c.812-1.364 1.56-2.76 2.123-3.918.162-.323.34-.66.512-.99 2.764-5.204 16.85-29.385 38.544-27.248.464.064.92.12 1.388.205.7.138 1.465-.214 1.828-.816.39-.627.294-1.34-.11-2-.52-.83-10.066-17.212-29.585-19.782z"/></svg>